<?xml version="1.0" standalone="no"?>
<!DOCTYPE svg PUBLIC "-//W3C//DTD SVG 20010904//EN"
 "http://www.w3.org/TR/2001/REC-SVG-20010904/DTD/svg10.dtd">
<svg version="1.0" xmlns="http://www.w3.org/2000/svg"
 width="300.000000pt" height="130.000000pt" viewBox="0 0 300.000000 130.000000"
 preserveAspectRatio="xMidYMid meet">

<g transform="translate(0.000000,130.000000) scale(0.100000,-0.100000)"
fill="#000000" stroke="none">
<path d="M1848 1113 c-8 -10 -37 -58 -63 -108 -27 -49 -84 -151 -129 -225 -89
-150 -192 -360 -227 -461 -20 -56 -21 -69 -10 -83 7 -9 17 -16 22 -16 19 0 41
53 44 109 6 79 77 224 264 533 90 148 141 243 138 252 -8 21 -20 20 -39 -1z"/>
<path d="M595 780 c-3 -5 1 -10 9 -10 8 0 18 5 21 10 3 6 -1 10 -9 10 -8 0
-18 -4 -21 -10z"/>
<path d="M120 680 l0 -70 40 0 c29 0 40 4 40 15 0 10 -10 15 -30 15 -20 0 -30
5 -30 15 0 10 10 15 30 15 20 0 30 5 30 15 0 10 -10 15 -30 15 -16 0 -30 5
-30 10 0 6 14 10 30 10 20 0 30 5 30 15 0 11 -11 15 -40 15 l-40 0 0 -70z"/>
<path d="M276 734 c-26 -26 -17 -46 29 -61 38 -12 30 -29 -12 -26 -39 3 -43
-13 -8 -29 19 -8 31 -8 50 0 37 17 33 50 -10 68 -44 18 -47 39 -5 31 34 -7 40
7 11 23 -27 14 -37 13 -55 -6z"/>
<path d="M400 735 c0 -8 9 -15 20 -15 18 0 20 -7 20 -55 0 -42 3 -55 15 -55
12 0 15 13 15 55 0 42 3 55 15 55 8 0 15 7 15 15 0 11 -12 15 -50 15 -38 0
-50 -4 -50 -15z"/>
<path d="M560 680 l0 -70 40 0 c29 0 40 4 40 15 0 10 -10 15 -30 15 -20 0 -30
5 -30 15 0 10 10 15 30 15 20 0 30 5 30 15 0 10 -10 15 -30 15 -16 0 -30 5
-30 10 0 6 14 10 30 10 20 0 30 5 30 15 0 11 -11 15 -40 15 l-40 0 0 -70z"/>
<path d="M690 735 c0 -8 9 -15 20 -15 18 0 20 -7 20 -55 0 -42 3 -55 15 -55
12 0 15 13 15 55 0 42 3 55 15 55 8 0 15 7 15 15 0 11 -12 15 -50 15 -38 0
-50 -4 -50 -15z"/>
<path d="M850 680 c0 -40 4 -70 10 -70 6 0 10 30 10 70 0 40 -4 70 -10 70 -6
0 -10 -30 -10 -70z"/>
<path d="M973 740 c-46 -18 -42 -103 5 -121 29 -12 73 -2 79 18 3 8 -9 11 -37
10 -31 -1 -45 3 -54 16 -19 30 5 52 53 50 44 -2 53 10 22 27 -23 12 -38 12
-68 0z"/>
<path d="M1155 738 c-37 -102 -43 -128 -29 -128 7 0 14 5 14 10 0 14 67 13 72
-1 2 -7 9 -10 15 -8 16 6 -35 139 -53 139 -8 0 -17 -6 -19 -12z m34 -65 c1 -7
-8 -13 -18 -13 -18 0 -19 3 -9 32 10 28 12 30 19 12 4 -10 8 -25 8 -31z"/>
<path d="M1933 595 c-17 -7 -66 -36 -107 -65 -71 -47 -98 -51 -59 -8 13 15 14
21 4 31 -18 17 -81 -56 -81 -95 0 -42 22 -36 150 42 l115 70 17 -40 c21 -48
42 -51 105 -14 25 14 46 24 47 22 2 -1 15 -29 29 -60 36 -80 38 -80 183 25 28
20 58 37 66 37 8 0 19 -14 24 -31 15 -53 36 -58 101 -24 40 22 57 26 60 17 14
-39 35 -45 133 -39 117 6 190 24 190 44 0 12 -8 14 -32 10 -121 -22 -158 -27
-201 -27 -45 0 -50 2 -60 30 -14 38 -34 38 -94 1 -51 -32 -73 -28 -73 14 0 12
-7 28 -15 35 -18 15 -51 -1 -154 -74 -38 -27 -76 -46 -84 -43 -8 3 -22 33 -31
66 -11 38 -22 61 -31 61 -8 0 -37 -13 -63 -30 -59 -36 -72 -37 -72 -6 0 13 -8
33 -17 44 -17 19 -21 20 -50 7z"/>
<path d="M2950 535 c0 -10 7 -15 18 -13 21 4 19 22 -2 26 -10 2 -16 -3 -16
-13z"/>
<path d="M826 483 c-6 -14 -5 -15 5 -6 7 7 10 15 7 18 -3 3 -9 -2 -12 -12z"/>
<path d="M1183 465 c0 -22 2 -30 4 -17 2 12 2 30 0 40 -3 9 -5 -1 -4 -23z"/>
<path d="M616 458 c3 -5 10 -6 15 -3 13 9 11 12 -6 12 -8 0 -12 -4 -9 -9z"/>
<path d="M380 456 c0 -2 8 -10 18 -17 15 -13 16 -12 3 4 -13 16 -21 21 -21 13z"/>
</g>
</svg>
